
<!--?xml version="1.0" encoding="utf-8"?-->
<!-- Generator: Adobe Illustrator 17.0.0, SVG Export Plug-In . SVG Version: 6.00 Build 0)  -->

<svg version="1.1" id="Layer_1" xmlns="http://www.w3.org/2000/svg" xmlns:xlink="http://www.w3.org/1999/xlink" x="0px" y="0px" width="600px" height="400px" viewBox="0 0 600 400" enable-background="new 0 0 600 400" xml:space="preserve" style="">
<linearGradient id="SVGID_1_" gradientUnits="userSpaceOnUse" x1="1846.7228" y1="444.8088" x2="2060.8574" y2="230.6743" gradientTransform="matrix(-1 0 0 -1 2300.9868 501.7277)">
	<stop offset="0" style="stop-color:#c0392b"></stop>
	<stop offset="1" style="stop-color:#d35400"></stop>
</linearGradient>
<path fill="url(#SVGID_1_)" d="M453.177,139.15L453.177,139.15c-3.318-3.318-8.696-3.318-12.014,0l-6.567,6.567
	c-0.972,0.971-2.547,0.971-3.518,0l0,0c-0.971-0.972-0.971-2.547,0-3.518l30.075-30.075c5.842-5.842,6.022-15.583,0.072-21.314
	c-5.77-5.558-14.954-5.492-20.643,0.197l-42.762,42.762c-1.705,1.705-4.47,1.705-6.175,0l0,0c-1.705-1.705-1.705-4.47,0-6.175
	l1.807-1.807c4.501-4.501,4.915-11.833,0.63-16.541c-4.574-5.026-12.362-5.164-17.113-0.413l-21.781,21.782
	c-1.793,1.793-4.7,1.793-6.493,0l0,0c-1.793-1.793-1.793-4.7,0-6.493l80.378-80.378c3.318-3.318,3.318-8.696,0-12.014l0,0
	c-3.318-3.317-8.696-3.317-12.014,0L360.3,88.487c-1.603,1.602-4.201,1.602-5.803,0l0,0c-1.602-1.603-1.602-4.201,0-5.803
	l7.063-7.063c2.622-2.622,2.888-6.93,0.346-9.63c-2.631-2.794-7.03-2.843-9.724-0.149L198.54,219.484
	c-2.622,2.622-2.888,6.93-0.346,9.63c2.631,2.794,7.03,2.843,9.724,0.149l59.112-59.113c1.602-1.602,4.201-1.602,5.803,0l0,0
	c1.602,1.602,1.602,4.2,0,5.803l-3.202,3.202c-3.318,3.318-3.318,8.697,0,12.014l0,0c3.318,3.318,8.696,3.318,12.014,0l25.82-25.82
	c1.793-1.793,4.7-1.793,6.493,0l0,0c1.793,1.793,1.793,4.7,0,6.493l-55.852,55.852c-4.501,4.501-4.915,11.833-0.631,16.541
	c4.574,5.026,12.362,5.164,17.113,0.414l81.593-81.593c1.705-1.705,4.47-1.705,6.175,0h0c1.705,1.705,1.705,4.47,0,6.175
	l-12.848,12.848c-5.756,5.756-5.756,15.088,0,20.844l0,0c5.756,5.756,15.088,5.756,20.844,0l17.168-17.168
	c0.971-0.972,2.547-0.972,3.518,0l0,0c0.971,0.971,0.971,2.547,0,3.518l-72.941,72.941c-3.318,3.318-3.318,8.697,0,12.014h0
	c3.318,3.318,8.697,3.318,12.014,0l123.065-123.065C456.495,147.846,456.495,142.468,453.177,139.15z" class="JVGFNLvm_0"></path>
<linearGradient id="SVGID_2_" gradientUnits="userSpaceOnUse" x1="462.3191" y1="41.8204" x2="501.0901" y2="3.0495">
	<stop offset="0" style="stop-color:#c0392b"></stop>
	<stop offset="1" style="stop-color:#d35400"></stop>
</linearGradient>
<path fill="none" stroke="url(#SVGID_2_)" stroke-width="3" stroke-linecap="round" stroke-linejoin="round" stroke-miterlimit="10" d="M463.38,40.76L500.029,4.11" class="JVGFNLvm_1"></path>
<g opacity="0.66">
	<g>
		<path fill="#FFFFFF" d="M422.253,124.19c1.73,0,3.417,0.701,4.645,1.928c1.227,1.217,1.929,2.915,1.929,4.646
			c0,1.731-0.702,3.429-1.929,4.646c-1.216,1.227-2.915,1.928-4.645,1.928c-1.731,0-3.43-0.701-4.646-1.928
			c-1.227-1.227-1.928-2.915-1.928-4.646c0-1.731,0.701-3.429,1.928-4.646C418.834,124.891,420.522,124.19,422.253,124.19z" class="JVGFNLvm_2"></path>
	</g>
	<g>
		<path fill="#FFFFFF" d="M439.389,113.616c2.574,2.565,2.574,6.728,0,9.302l0,0c-2.564,2.564-6.727,2.564-9.292,0l0,0
			c-2.564-2.574-2.564-6.738,0-9.302l0,0c1.282-1.282,2.969-1.928,4.646-1.928l0,0C436.43,111.688,438.107,112.335,439.389,113.616z
			" class="JVGFNLvm_3"></path>
	</g>
	<g>
		<path fill="#FFFFFF" d="M447.245,99.198c1.72,0,3.419,0.701,4.646,1.928c1.215,1.227,1.917,2.915,1.917,4.646
			c0,1.731-0.702,3.429-1.917,4.645c-1.227,1.227-2.925,1.929-4.646,1.929c-1.731,0-3.429-0.702-4.657-1.929
			c-1.227-1.215-1.928-2.914-1.928-4.645c0-1.731,0.701-3.419,1.928-4.646C443.815,99.899,445.513,99.198,447.245,99.198z" class="JVGFNLvm_4"></path>
	</g>
</g>
<linearGradient id="SVGID_3_" gradientUnits="userSpaceOnUse" x1="457.4361" y1="44.9359" x2="391.3679" y2="111.0041">
	<stop offset="0" style="stop-color:#c0392b"></stop>
	<stop offset="1" style="stop-color:#d35400"></stop>
</linearGradient>
<path fill="url(#SVGID_3_)" d="M395.319,95.863A11.19,11.19 0,1,1 417.699,95.863A11.19,11.19 0,1,1 395.319,95.863" class="JVGFNLvm_5"></path>
<g>
	<linearGradient id="SVGID_4_" gradientUnits="userSpaceOnUse" x1="255.6963" y1="247.1963" x2="193.9507" y2="308.9419">
		<stop offset="0" style="stop-color:#c0392b"></stop>
		<stop offset="1" style="stop-color:#d35400"></stop>
	</linearGradient>
	<path fill="url(#SVGID_4_)" d="M248.898,253.994L248.898,253.994c4.514,4.514,4.514,11.832,0,16.346l-9.482,9.482
		c-4.514,4.514-11.832,4.514-16.346,0v0c-4.514-4.514-4.514-11.832,0-16.346l9.482-9.482
		C237.066,249.48,244.385,249.48,248.898,253.994z" class="JVGFNLvm_6"></path>
	<linearGradient id="SVGID_5_" gradientUnits="userSpaceOnUse" x1="255.6963" y1="247.1964" x2="193.9509" y2="308.9417">
		<stop offset="0" style="stop-color:#c0392b"></stop>
		<stop offset="1" style="stop-color:#d35400"></stop>
	</linearGradient>
	<path fill="url(#SVGID_5_)" d="M196.145,295.19A11.558,11.558 0,1,1 219.261,295.19A11.558,11.558 0,1,1 196.145,295.19" class="JVGFNLvm_7"></path>
</g>
<linearGradient id="SVGID_6_" gradientUnits="userSpaceOnUse" x1="114.4124" y1="314.5981" x2="194.1405" y2="234.87">
  <stop offset="0" style="stop-color:#c0392b"></stop>
  <stop offset="1" style="stop-color:#d35400"></stop>
</linearGradient>
<path fill="none" stroke="url(#SVGID_6_)" stroke-width="3" stroke-linecap="round" stroke-linejoin="round" stroke-miterlimit="10" d="M193.08,235.931L115.473,313.537" class="JVGFNLvm_8"></path>
<linearGradient id="SVGID_7_" gradientUnits="userSpaceOnUse" x1="100.3779" y1="406.9513" x2="192.8525" y2="314.4767">
  <stop offset="0" style="stop-color:#c0392b"></stop>
  <stop offset="1" style="stop-color:#d35400"></stop>
</linearGradient>
<path fill="none" stroke="url(#SVGID_7_)" stroke-width="3" stroke-linecap="round" stroke-linejoin="round" stroke-miterlimit="10" d="M191.792,315.537L101.439,405.891" class="JVGFNLvm_9"></path>
<linearGradient id="SVGID_8_" gradientUnits="userSpaceOnUse" x1="441.3839" y1="19.8839" x2="485.9091" y2="-24.6413">
  <stop offset="0" style="stop-color:#c0392b"></stop>
  <stop offset="1" style="stop-color:#d35400"></stop>
</linearGradient>
<path fill="url(#SVGID_8_)" d="M439.256,13.178A8.834,8.834 0,1,1 456.924,13.178A8.834,8.834 0,1,1 439.256,13.178" class="JVGFNLvm_10"></path>
<style data-made-with="vivus-instant">.JVGFNLvm_0{stroke-dasharray:1621 1623;stroke-dashoffset:1622;animation:JVGFNLvm_draw_0 7200ms linear 0ms infinite,JVGFNLvm_fade 7200ms linear 0ms infinite;}.JVGFNLvm_1{stroke-dasharray:52 54;stroke-dashoffset:53;animation:JVGFNLvm_draw_1 7200ms linear 0ms infinite,JVGFNLvm_fade 7200ms linear 0ms infinite;}.JVGFNLvm_2{stroke-dasharray:42 44;stroke-dashoffset:43;animation:JVGFNLvm_draw_2 7200ms linear 0ms infinite,JVGFNLvm_fade 7200ms linear 0ms infinite;}.JVGFNLvm_3{stroke-dasharray:42 44;stroke-dashoffset:43;animation:JVGFNLvm_draw_3 7200ms linear 0ms infinite,JVGFNLvm_fade 7200ms linear 0ms infinite;}.JVGFNLvm_4{stroke-dasharray:42 44;stroke-dashoffset:43;animation:JVGFNLvm_draw_4 7200ms linear 0ms infinite,JVGFNLvm_fade 7200ms linear 0ms infinite;}.JVGFNLvm_5{stroke-dasharray:71 73;stroke-dashoffset:72;animation:JVGFNLvm_draw_5 7200ms linear 0ms infinite,JVGFNLvm_fade 7200ms linear 0ms infinite;}.JVGFNLvm_6{stroke-dasharray:100 102;stroke-dashoffset:101;animation:JVGFNLvm_draw_6 7200ms linear 0ms infinite,JVGFNLvm_fade 7200ms linear 0ms infinite;}.JVGFNLvm_7{stroke-dasharray:73 75;stroke-dashoffset:74;animation:JVGFNLvm_draw_7 7200ms linear 0ms infinite,JVGFNLvm_fade 7200ms linear 0ms infinite;}.JVGFNLvm_8{stroke-dasharray:110 112;stroke-dashoffset:111;animation:JVGFNLvm_draw_8 7200ms linear 0ms infinite,JVGFNLvm_fade 7200ms linear 0ms infinite;}.JVGFNLvm_9{stroke-dasharray:128 130;stroke-dashoffset:129;animation:JVGFNLvm_draw_9 7200ms linear 0ms infinite,JVGFNLvm_fade 7200ms linear 0ms infinite;}.JVGFNLvm_10{stroke-dasharray:56 58;stroke-dashoffset:57;animation:JVGFNLvm_draw_10 7200ms linear 0ms infinite,JVGFNLvm_fade 7200ms linear 0ms infinite;}@keyframes JVGFNLvm_draw{100%{stroke-dashoffset:0;}}@keyframes JVGFNLvm_fade{0%{stroke-opacity:1;}94.44444444444444%{stroke-opacity:1;}100%{stroke-opacity:0;}}@keyframes JVGFNLvm_draw_0{11.11111111111111%{stroke-dashoffset: 1622}38.88888888888889%{ stroke-dashoffset: 0;}100%{ stroke-dashoffset: 0;}}@keyframes JVGFNLvm_draw_1{12.5%{stroke-dashoffset: 53}40.27777777777778%{ stroke-dashoffset: 0;}100%{ stroke-dashoffset: 0;}}@keyframes JVGFNLvm_draw_2{13.88888888888889%{stroke-dashoffset: 43}41.66666666666667%{ stroke-dashoffset: 0;}100%{ stroke-dashoffset: 0;}}@keyframes JVGFNLvm_draw_3{15.277777777777779%{stroke-dashoffset: 43}43.05555555555556%{ stroke-dashoffset: 0;}100%{ stroke-dashoffset: 0;}}@keyframes JVGFNLvm_draw_4{16.666666666666664%{stroke-dashoffset: 43}44.44444444444444%{ stroke-dashoffset: 0;}100%{ stroke-dashoffset: 0;}}@keyframes JVGFNLvm_draw_5{18.055555555555554%{stroke-dashoffset: 72}45.83333333333333%{ stroke-dashoffset: 0;}100%{ stroke-dashoffset: 0;}}@keyframes JVGFNLvm_draw_6{19.444444444444446%{stroke-dashoffset: 101}47.22222222222222%{ stroke-dashoffset: 0;}100%{ stroke-dashoffset: 0;}}@keyframes JVGFNLvm_draw_7{20.833333333333336%{stroke-dashoffset: 74}48.61111111111111%{ stroke-dashoffset: 0;}100%{ stroke-dashoffset: 0;}}@keyframes JVGFNLvm_draw_8{22.22222222222222%{stroke-dashoffset: 111}50%{ stroke-dashoffset: 0;}100%{ stroke-dashoffset: 0;}}@keyframes JVGFNLvm_draw_9{23.61111111111111%{stroke-dashoffset: 129}51.388888888888886%{ stroke-dashoffset: 0;}100%{ stroke-dashoffset: 0;}}@keyframes JVGFNLvm_draw_10{25%{stroke-dashoffset: 57}52.77777777777778%{ stroke-dashoffset: 0;}100%{ stroke-dashoffset: 0;}}</style></svg>
